<svg width="33" height="22" viewBox="0 0 33 22" fill="none" xmlns="http://www.w3.org/2000/svg">
<g clip-path="url(#clip0_18_157)">
<path d="M21.1214 18.6269H12.3721V2.90302H21.1216L21.1214 18.6269Z" fill="#B91C1C"/>
<path d="M32.9244 10.7651C32.9244 16.288 28.448 20.7651 22.9257 20.7651C20.6836 20.7684 18.5061 20.015 16.7454 18.627C19.0716 16.7959 20.565 13.9548 20.565 10.7651C20.565 7.57531 19.0716 4.73419 16.7454 2.90314C18.506 1.51513 20.6835 0.761802 22.9255 0.765056C28.4478 0.765056 32.9242 5.24214 32.9242 10.7651" fill="#EAB308"/>
<path d="M12.9266 10.7651C12.9266 7.57547 14.42 4.73419 16.7456 2.90314C14.9852 1.51509 12.808 0.761744 10.5662 0.765056C5.04394 0.765056 0.567505 5.24214 0.567505 10.7651C0.567505 16.288 5.04394 20.7651 10.5662 20.7651C12.808 20.7684 14.9853 20.0151 16.7457 18.627C14.4203 16.7963 12.9266 13.9548 12.9266 10.7651Z" fill="#B91C1C"/>
</g>
<defs>
<clipPath id="clip0_18_157">
<rect width="33" height="21" fill="white" transform="translate(0 0.05867)"/>
</clipPath>
</defs>
</svg>
